<?xml version="1.0" encoding="UTF-8"?>
<svg width="32px" height="32px" viewBox="0 0 32 32" version="1.1" xmlns="http://www.w3.org/2000/svg" xmlns:xlink="http://www.w3.org/1999/xlink">
    <!-- Generator: Sketch 48.2 (47327) - http://www.bohemiancoding.com/sketch -->
    <title>很差</title>
    <desc>Created with Sketch.</desc>
    <defs></defs>
    <g id="评价页标注" stroke="none" stroke-width="1" fill="none" fill-rule="evenodd" transform="translate(-1563.000000, -418.000000)">
        <g id="Group-3-Copy" transform="translate(1563.000000, 418.000000)">
            <g id="很差">
                <circle id="Oval-3" fill="#E5E8EC" cx="16" cy="16" r="16"></circle>
                <path d="M10.6568542,11.6568542 L12.6568542,11.6568542 C13.209139,11.6568542 13.6568542,12.1045695 13.6568542,12.6568542 C13.6568542,13.209139 13.209139,13.6568542 12.6568542,13.6568542 L10.6568542,13.6568542 L10.6568542,15.6568542 C10.6568542,16.209139 10.209139,16.6568542 9.65685425,16.6568542 C9.1045695,16.6568542 8.65685425,16.209139 8.65685425,15.6568542 L8.65685425,13.6568542 L6.65685425,13.6568542 C6.1045695,13.6568542 5.65685425,13.209139 5.65685425,12.6568542 C5.65685425,12.1045695 6.1045695,11.6568542 6.65685425,11.6568542 L8.65685425,11.6568542 L8.65685425,9.65685425 C8.65685425,9.1045695 9.1045695,8.65685425 9.65685425,8.65685425 C10.209139,8.65685425 10.6568542,9.1045695 10.6568542,9.65685425 L10.6568542,11.6568542 Z" id="Combined-Shape" fill="#393939" opacity="0.699999988" transform="translate(9.656854, 12.656854) rotate(-315.000000) translate(-9.656854, -12.656854) "></path>
                <path d="M23.6568542,11.6568542 L25.6568542,11.6568542 C26.209139,11.6568542 26.6568542,12.1045695 26.6568542,12.6568542 C26.6568542,13.209139 26.209139,13.6568542 25.6568542,13.6568542 L23.6568542,13.6568542 L23.6568542,15.6568542 C23.6568542,16.209139 23.209139,16.6568542 22.6568542,16.6568542 C22.1045695,16.6568542 21.6568542,16.209139 21.6568542,15.6568542 L21.6568542,13.6568542 L19.6568542,13.6568542 C19.1045695,13.6568542 18.6568542,13.209139 18.6568542,12.6568542 C18.6568542,12.1045695 19.1045695,11.6568542 19.6568542,11.6568542 L21.6568542,11.6568542 L21.6568542,9.65685425 C21.6568542,9.1045695 22.1045695,8.65685425 22.6568542,8.65685425 C23.209139,8.65685425 23.6568542,9.1045695 23.6568542,9.65685425 L23.6568542,11.6568542 Z" id="Combined-Shape-Copy" fill="#393939" opacity="0.699999988" transform="translate(22.656854, 12.656854) rotate(-315.000000) translate(-22.656854, -12.656854) "></path>
                <path d="M20.1479708,29.1479708 C20.1479708,24.962521 16.7549934,21.5695436 12.5695436,21.5695436" id="Oval-4" stroke="#393939" stroke-width="2" opacity="0.699999988" stroke-linecap="round" transform="translate(16.358757, 25.358757) rotate(-45.000000) translate(-16.358757, -25.358757) "></path>
            </g>
        </g>
    </g>
</svg>