<?xml version="1.0" encoding="UTF-8"?>
<svg width="12px" height="12px" viewBox="0 0 12 12" version="1.1" xmlns="http://www.w3.org/2000/svg" xmlns:xlink="http://www.w3.org/1999/xlink">
    <!-- Generator: Sketch 48.2 (47327) - http://www.bohemiancoding.com/sketch -->
    <title>star -off</title>
    <desc>Created with Sketch.</desc>
    <defs></defs>
    <g id="MVP7首页标注" stroke="none" stroke-width="1" fill="none" fill-rule="evenodd" transform="translate(-1386.000000, -3294.000000)">
        <g id="star--off" transform="translate(1386.000000, 3294.000000)">
            <rect id="Rectangle-5" fill="#FFFFFF" opacity="0.01" x="0" y="0" width="12" height="12"></rect>
            <path d="M5.56709829,10.0793725 L2.5650481,11.6114507 C2.38874171,11.7014276 2.17287643,11.6314437 2.08289953,11.4551373 C2.04746688,11.3857084 2.0356349,11.3066206 2.04919701,11.2298618 L2.61728221,8.01461234 C2.63824461,7.89596934 2.59819311,7.7747324 2.51068014,7.69192502 L0.112069436,5.42228815 C-0.031706516,5.28624306 -0.0379736204,5.05940329 0.0980714665,4.91562734 C0.153849758,4.8566794 0.227982932,4.81840701 0.308342076,4.8070719 L3.64216458,4.33681755 C3.75799942,4.32047839 3.8585705,4.24863616 3.91158661,4.14435783 L5.41053509,1.19604948 C5.50024112,1.0196051 5.71599865,0.949289777 5.89244303,1.0389958 C5.96010425,1.07339542 6.01509709,1.12838826 6.0494967,1.19604948 L7.54844518,4.14435783 C7.60146129,4.24863616 7.70203237,4.32047839 7.81786721,4.33681755 L11.1516897,4.8070719 C11.3476883,4.8347186 11.4841645,5.01601894 11.4565178,5.21201754 C11.4451827,5.29237668 11.4069103,5.36650986 11.3479624,5.42228815 L8.94935165,7.69192502 C8.86183868,7.7747324 8.82178719,7.89596934 8.84274958,8.01461234 L9.41083478,11.2298618 C9.44527412,11.4247816 9.31517901,11.6107139 9.12025922,11.6451532 C9.04350039,11.6587153 8.96441263,11.6468833 8.89498369,11.6114507 L5.8929335,10.0793725 C5.79059984,10.0271471 5.66943196,10.0271471 5.56709829,10.0793725 Z" id="Star" fill="#D8E3ED"></path>
        </g>
    </g>
</svg>