<?xml version="1.0" encoding="UTF-8"?>
<svg width="90px" height="86px" viewBox="0 0 90 86" version="1.1" xmlns="http://www.w3.org/2000/svg" xmlns:xlink="http://www.w3.org/1999/xlink">
    <!-- Generator: Sketch 46.2 (44496) - http://www.bohemiancoding.com/sketch -->
    <title>锁</title>
    <desc>Created with Sketch.</desc>
    <defs></defs>
    <g id="赠一得一" stroke="none" stroke-width="1" fill="none" fill-rule="evenodd">
        <g id="iPhone-7-Copy" transform="translate(-156.000000, -267.000000)" fill="#FFFFFF">
            <g id="浮层/完成" transform="translate(68.000000, 214.000000)">
                <path d="M113.615917,117.884187 C113.615917,119.054937 114.985929,120 116.678536,120 C118.369102,120 119.741156,119.054937 119.741156,117.884187 L119.741156,115.359317 C121.617521,114.61173 122.899738,113.229399 122.899738,111.635486 C122.899738,109.265776 120.10867,107.333333 116.678536,107.333333 C113.246361,107.333333 110.455293,109.265776 110.455293,111.635486 C110.455293,113.201188 111.680341,114.61173 113.615917,115.373422 L113.615917,117.884187 Z M136,93.0791993 L141.522635,93.0791993 C142.890141,93.0791993 144,94.1871192 144,95.5596171 L144,127.805048 C144,131.492602 141.970213,138.553525 134.295337,138.867711 C131.637951,138.966928 126.267025,139 120.455127,139 C110.291326,139 98.7732327,138.900783 98.0217654,138.884247 C95.07205,139.066144 88.9694753,136.70148 88.0132126,127.160139 C88.0049547,127.077459 88,126.994778 88,126.912097 L88,95.5596171 C88,94.1871192 89.1098593,93.0791993 90.4773646,93.0791993 L96.2165924,93.0791993 L130,93.0791993 L130,77.5 C130,63.9846173 140.729161,53 154,53 C167.270839,53 178,63.9846173 178,77.5 L178,88.7509753 L172,88.7509753 L172,77.5 C172,67.2671384 163.925121,59 154,59 C144.074879,59 136,67.2671384 136,77.5 L136,93.0791993 Z" id="锁"></path>
            </g>
        </g>
    </g>
</svg>