<?xml version="1.0" encoding="UTF-8"?>
<svg width="64px" height="64px" viewBox="0 0 64 64" version="1.1" xmlns="http://www.w3.org/2000/svg" xmlns:xlink="http://www.w3.org/1999/xlink">
    <!-- Generator: Sketch 48.2 (47327) - http://www.bohemiancoding.com/sketch -->
    <title>Group 12</title>
    <desc>Created with Sketch.</desc>
    <defs></defs>
    <g id="赠一得一入口标注" stroke="none" stroke-width="1" fill="none" fill-rule="evenodd" transform="translate(-508.000000, -429.000000)">
        <g id="Group-13" transform="translate(227.000000, 322.000000)">
            <g id="Group-11" transform="translate(20.000000, 89.000000)">
                <g id="Group-12" transform="translate(261.000000, 18.000000)">
                    <circle id="Oval-10" fill="#FFFFFF" cx="32" cy="32" r="32"></circle>
                    <path d="M19,32 L31,32 L31,50 L21,50 C19.8954305,50 19,49.1045695 19,48 L19,32 Z M45,32 L45,48 C45,49.1045695 44.1045695,50 43,50 L33,50 L33,32 L45,32 Z M33,23 L47,23 C48.1045695,23 49,23.8954305 49,25 L49,29 L33,29 L33,23 Z M31,23 L31,29 L15,29 L15,25 C15,23.8954305 15.8954305,23 17,23 L31,23 Z M32,22.6268433 C27.0294373,22.6268433 23,20.3243077 23,17.4839861 C23,14.6436646 27.4001965,13.0582537 32,19.420344 C35.6144346,13.4274668 41,14.6436646 41,17.4839861 C41,20.3243077 36.9705627,22.6268433 32,22.6268433 Z" id="Combined-Shape" fill="#FE417B"></path>
                </g>
            </g>
        </g>
    </g>
</svg>