<?xml version="1.0" encoding="UTF-8"?>
<svg width="24px" height="23px" viewBox="0 0 24 23" version="1.1" xmlns="http://www.w3.org/2000/svg" xmlns:xlink="http://www.w3.org/1999/xlink">
    <!-- Generator: Sketch 51.3 (57544) - http://www.bohemiancoding.com/sketch -->
    <title>Icon</title>
    <desc>Created with Sketch.</desc>
    <defs></defs>
    <g id="onboarding优化" stroke="none" stroke-width="1" fill="none" fill-rule="evenodd">
        <path d="M21.6040965,17.9885557 C20.2966244,17.2385754 19.0355953,16.8695851 18.0461569,16.646591 C18.0481762,16.645591 18.0501955,16.645591 18.0522147,16.6445911 C17.9532709,16.6225916 17.8644234,16.6045921 17.7705277,16.5855926 C17.7089402,16.572593 17.6473527,16.5585933 17.5877845,16.5475936 C17.0213815,16.4315967 16.5761342,16.3585986 16.3328132,16.2796007 C15.6937168,16.0686062 15.0061581,15.8456121 15.0061581,14.9456358 C15.0061581,14.0466595 14.9940425,13.9286626 15.2121228,13.8086657 C15.6270811,13.5766718 15.8724214,13.2186813 15.9269415,12.9406886 C16.0279046,12.4217022 16.0804054,10.9677405 16.2116575,10.7827454 C16.3429095,10.5937504 16.5781535,10.7547461 16.658924,10.3287573 C16.7366656,9.90276857 16.7366656,9.52877841 16.8144072,9.3697826 C16.8931584,9.20978681 17.167778,8.17781398 16.99816,7.8238233 C16.8467153,7.50783162 16.5720957,7.67282728 16.5529127,7.47683244 C16.5195949,7.15784084 17.1061905,4.47991135 16.7094055,3.34594121 C16.4862771,2.70295814 16.0147794,2.10697383 16.0107409,2.0929742 C15.7219864,1.0520016 13.7299845,0.494016296 13.2312268,0.280021931 C12.7324691,0.0670275389 11.2654753,-0.225964747 10.2689695,0.280021931 C9.27246373,0.787008582 9.00491152,1.46899063 8.5838954,1.73498362 C8.16489854,2.00297657 7.71763202,2.16597227 7.30570258,3.34594121 C6.9089176,4.47991135 7.4955132,7.15784084 7.46320501,7.47683244 C7.44402202,7.67282728 7.16839277,7.50783162 7.01896738,7.8238233 C6.84733011,8.17781398 7.12295937,9.20978681 7.20070096,9.3697826 C7.27945217,9.52877841 7.27945217,9.90276857 7.35921302,10.3287573 C7.43695461,10.7547461 7.67219862,10.5937504 7.80446028,10.7827454 C7.93571231,10.9677405 7.98821312,12.4217022 8.08917622,12.9406886 C8.14268666,13.2186813 8.38903662,13.5766718 8.80399495,13.8086657 C9.02106561,13.9286626 9.00995967,14.0466595 9.00995967,14.9456358 C9.00995967,15.8456121 8.32341061,16.0686062 7.68229493,16.2796007 C6.99574587,16.5055947 4.75436509,16.6345913 2.39586712,17.9885557 C0.368528111,19.151525 0.5017994,22.4994369 0.5017994,22.4994369 L9.45823583,22.4994369 L11.5128349,22.4994369 L23.4981642,22.4994369 C23.4981642,22.4994369 23.6324452,19.151525 21.6040965,17.9885557" id="Icon" fill="#007AFF"></path>
    </g>
</svg>