<?xml version="1.0" encoding="UTF-8"?>
<svg width="64px" height="64px" viewBox="0 0 64 64" version="1.1" xmlns="http://www.w3.org/2000/svg" xmlns:xlink="http://www.w3.org/1999/xlink">
    <!-- Generator: Sketch 47.1 (45422) - http://www.bohemiancoding.com/sketch -->
    <title>icon_expandable_toast</title>
    <desc>Created with Sketch.</desc>
    <defs></defs>
    <g id="Annotation" stroke="none" stroke-width="1" fill="none" fill-rule="evenodd">
        <g id="练习类未完成-toast-标注" transform="translate(-1955.000000, -644.000000)">
            <g id="Toast-Copy-3" transform="translate(1927.000000, 628.000000)">
                <g id="icon_expandable_toast" transform="translate(28.000000, 16.000000)">
                    <rect id="Rectangle" fill="#585858" opacity="0.01" x="0" y="0" width="64" height="64"></rect>
                    <rect id="Rectangle-2" fill="#FF895A" opacity="0.400000006" x="13" y="12" width="38" height="10" rx="2"></rect>
                    <rect id="Rectangle-2" fill="#FF895A" opacity="0.400000006" x="13" y="38" width="38" height="10" rx="2"></rect>
                    <rect id="Rectangle-2" fill="#FF895A" opacity="0.800000012" x="13" y="25" width="38" height="10" rx="2"></rect>
                    <g id="Hand" transform="translate(42.563788, 42.306285) rotate(-16.000000) translate(-42.563788, -42.306285) translate(30.063788, 25.806285)" fill="#FFFFFF">
                        <rect id="Rectangle-3" x="8" y="0" width="5" height="25" rx="2.5"></rect>
                        <rect id="Rectangle-3" x="12" y="11" width="5" height="12" rx="2.5"></rect>
                        <rect id="Rectangle-3-Copy" x="16" y="13" width="5" height="12" rx="2.5"></rect>
                        <rect id="Rectangle-3-Copy-2" x="20" y="15" width="5" height="10" rx="2.5"></rect>
                        <path d="M8,21 L4.5,17.5 L4.5,17.5 C3.67157288,16.6715729 2.32842712,16.6715729 1.5,17.5 L1.5,17.5 L1.5,17.5 C0.634417091,18.3655829 0.521487636,19.7300827 1.2329924,20.7261894 L9.40176885,32.1624764 L9.40176885,32.1624764 C9.77719188,32.6880686 10.3833336,33 11.0292358,33 L21.4866438,33 L21.4866438,33.000007 C22.3881038,33.000007 23.1781514,32.3969467 23.4158624,31.527393 C24.4719541,27.6641792 25,24.6718067 25,22.5502756 C25,20.1664858 25,18.3064393 25,16.9701361 L10.3077438,16.9701361 L8,21 Z" id="Path-2"></path>
                    </g>
                </g>
            </g>
        </g>
    </g>
</svg>