<?xml version="1.0" encoding="UTF-8"?>
<svg width="17px" height="18px" viewBox="0 0 17 18" version="1.1" xmlns="http://www.w3.org/2000/svg" xmlns:xlink="http://www.w3.org/1999/xlink">
    <!-- Generator: Sketch 48.2 (47327) - http://www.bohemiancoding.com/sketch -->
    <title>Combined Shape</title>
    <desc>Created with Sketch.</desc>
    <defs></defs>
    <g id="赠一得一2.0" stroke="none" stroke-width="1" fill="none" fill-rule="evenodd">
        <g id="Group-14-Copy" transform="translate(-16.000000, -7.000000)" fill="#FE417B">
            <path d="M18,16 L24,16 L24,25 L19,25 C18.4477153,25 18,24.5522847 18,24 L18,16 Z M31,16 L31,24 C31,24.5522847 30.5522847,25 30,25 L25,25 L25,16 L31,16 Z M25,11 L32,11 C32.5522847,11 33,11.4477153 33,12 L33,14 L25,14 L25,11 Z M24,11 L24,14 L16,14 L16,12 C16,11.4477153 16.4477153,11 17,11 L24,11 Z M24.5,10.8134216 C22.0147186,10.8134216 20,9.66215385 20,8.24199307 C20,6.82183228 22.2000982,6.02912683 24.5,9.21017198 C26.3072173,6.21373341 29,6.82183228 29,8.24199307 C29,9.66215385 26.9852814,10.8134216 24.5,10.8134216 Z" id="Combined-Shape"></path>
        </g>
    </g>
</svg>