<?xml version="1.0" encoding="UTF-8"?>
<svg width="30px" height="30px" viewBox="0 0 30 30" version="1.1" xmlns="http://www.w3.org/2000/svg" xmlns:xlink="http://www.w3.org/1999/xlink">
    <!-- Generator: Sketch 48.2 (47327) - http://www.bohemiancoding.com/sketch -->
    <title>微信支付图标</title>
    <desc>Created with Sketch.</desc>
    <defs></defs>
    <g id="微课支付页标注" stroke="none" stroke-width="1" fill="none" fill-rule="evenodd" transform="translate(-802.000000, -659.000000)">
        <g id="微信支付图标" transform="translate(802.000000, 659.000000)">
            <rect id="Rectangle-4" fill="#FFFFFF" x="0" y="0" width="30" height="30"></rect>
            <path d="M15,27 C23.2842712,27 30,21.1797017 30,14 C30,11.8678328 29.380172,9.71709666 28.3304311,7.94154001 C28.2196667,7.75419049 22.2136354,11.2670093 10.3123374,18.4799966 L6.83716136,11.7188901 L7.20044377,10.8874439 L11.0811991,14.2111109 C12.9845061,13.3587741 14.2907731,12.7576511 15,12.4077418 C20.3797795,9.75353535 27.2427676,6.48242307 27.0644091,6.2735864 C24.3319554,3.0742072 19.9454721,1 15,1 C6.71572875,1 0,6.82029825 0,14 C0,18.0401672 2.37736544,21.4000235 5.46253274,24.0342388 C5.59715519,24.1491838 5.30976085,25.3483619 4.60034971,27.6317733 L5.09579295,28.0751237 C7.710896,26.6655128 9.13692721,25.9920196 9.37388657,26.0546441 C11.1621684,26.5272581 13.0103866,27 15,27 Z" id="Oval-6" fill="#00C800"></path>
        </g>
    </g>
</svg>