<?xml version="1.0" encoding="UTF-8"?>
<svg width="32px" height="32px" viewBox="0 0 32 32" version="1.1" xmlns="http://www.w3.org/2000/svg" xmlns:xlink="http://www.w3.org/1999/xlink">
    <!-- Generator: Sketch 47.1 (45422) - http://www.bohemiancoding.com/sketch -->
    <title>icon / Drop Zone Arrow </title>
    <desc>Created with Sketch.</desc>
    <defs></defs>
    <g id="Symbols" stroke="none" stroke-width="1" fill="none" fill-rule="evenodd">
        <g id="icon-/-Drop-Zone-Arrow-">
            <g>
                <rect id="Rectangle-11" fill-opacity="0.01" fill="#FFFFFF" x="0" y="0" width="32" height="32"></rect>
                <path d="M14,22.7085072 L14,5 L14,5 C14,3.8954305 14.8954305,3 16,3 C17.1045695,3 18,3.8954305 18,5 L18,22.7089552 L22.3749158,19.037965 C23.2210651,18.3279614 24.4825763,18.4383293 25.1925799,19.2844787 C25.9025835,20.130628 25.7922155,21.3921392 24.9460662,22.1021428 L17.3452669,28.4799707 C16.990034,28.803061 16.5180158,29 16,29 C15.4790415,29 15.0046047,28.8008171 14.6486906,28.4744524 L7.05446768,22.1021428 C6.20831836,21.3921392 6.09795043,20.130628 6.80795402,19.2844787 C7.51795761,18.4383293 8.7794688,18.3279614 9.62561812,19.037965 L14,22.7085072 Z" id="Rectangle-10" fill="#FF895A"></path>
            </g>
        </g>
    </g>
</svg>