<?xml version="1.0" encoding="UTF-8"?>
<svg width="14px" height="14px" viewBox="0 0 14 14" version="1.1" xmlns="http://www.w3.org/2000/svg" xmlns:xlink="http://www.w3.org/1999/xlink">
    <!-- Generator: Sketch 46.2 (44496) - http://www.bohemiancoding.com/sketch -->
    <title>时钟</title>
    <desc>Created with Sketch.</desc>
    <defs></defs>
    <g id="Page-1" stroke="none" stroke-width="1" fill="none" fill-rule="evenodd" opacity="0.699999988">
        <g id="详情页-copy-4" transform="translate(-161.000000, -1073.000000)" fill="#294657">
            <g id="Group-5-Copy-3" transform="translate(161.000000, 1070.000000)">
                <g id="9B" transform="translate(0.000000, 3.000000)">
                    <path d="M6.909,7.41265 C6.622,7.41265 6.384,7.17745 6.384,6.88765 L6.384,3.115 C6.384,2.8252 6.622,2.59 6.909,2.59 C7.1995,2.59 7.434,2.8252 7.434,3.115 L7.434,6.36265 L9.359,6.36265 C9.6495,6.36265 9.884,6.5975 9.884,6.88765 C9.884,7.17745 9.6495,7.41265 9.359,7.41265 L6.909,7.41265 Z M0.1715,6.88765 C0.1715,3.1724 3.1955,0.15015 6.909,0.15015 C10.626,0.15015 13.6465,3.1724 13.6465,6.88765 C13.6465,10.60255 10.626,13.62515 6.909,13.62515 C3.1955,13.62515 0.1715,10.60255 0.1715,6.88765 Z"></path>
                </g>
            </g>
        </g>
    </g>
</svg>